<svg width="105" height="43" viewBox="0 0 105 43" fill="none" xmlns="http://www.w3.org/2000/svg">
<path d="M4.01147 22.6615C4.01147 21.6762 4.29298 20.6909 4.71524 19.7761C5.1375 18.8612 5.77089 18.0166 6.54503 17.2425C7.10804 16.7499 7.60067 16.3276 8.02293 16.0461C8.44519 15.7646 8.86745 15.5535 9.28971 15.4831C9.71197 15.4127 10.2046 15.4831 10.6972 15.4831C11.1899 15.6238 11.7529 15.7646 12.4566 16.0461C13.1604 16.3276 13.8642 16.8202 14.4272 17.524C15.0606 18.2278 15.5532 19.0019 15.9051 19.8464C16.257 20.6909 16.5385 21.6058 16.6792 22.5911C16.82 23.506 16.6792 24.4209 16.3977 25.195C16.1866 25.6877 15.9051 26.1803 15.5532 26.6729C15.2013 27.1656 14.7087 27.5878 14.2161 27.9397C13.7234 28.2916 13.1604 28.6435 12.5974 28.8546C12.0344 29.0657 11.4714 29.2065 10.9084 29.2769C9.99347 29.2769 9.14895 29.2065 8.30444 28.8546C7.45992 28.5027 6.75616 28.0805 6.12277 27.4471C5.48938 26.8137 4.99674 26.1099 4.57449 25.2654C4.2226 24.4209 4.01147 23.506 4.01147 22.5911V22.6615ZM7.17841 22.8022C7.17841 23.6468 7.31917 24.2801 7.67105 24.7024C8.02293 25.1247 8.51557 25.5469 9.14895 25.8284C9.85272 26.1803 10.4157 26.3211 10.9084 26.1099C11.401 25.9692 11.8936 25.6173 12.4566 25.195C13.09 24.7024 13.4419 24.2098 13.5123 23.7171C13.5827 23.2245 13.5123 22.5911 13.3715 21.9577C13.3012 21.6058 13.1604 21.3243 13.0197 21.1132C12.8789 20.9021 12.6678 20.6206 12.527 20.3391C11.8233 19.3538 11.1195 18.7908 10.3454 18.7908C9.57121 18.7908 8.79707 19.213 8.16368 20.1983C7.8118 20.6206 7.60067 21.0428 7.45992 21.4651C7.31917 21.8873 7.24879 22.3096 7.24879 22.8726L7.17841 22.8022ZM25.2652 21.0428C25.617 21.254 25.9689 21.3947 26.3208 21.5355C26.6727 21.6058 26.9542 21.6762 27.2357 21.6762C27.5172 21.6762 27.7987 21.6762 28.0802 21.6762C28.3617 21.6762 28.6432 21.6762 28.9247 21.6058C29.7692 21.6058 30.6138 21.6058 31.3175 21.817C31.6694 21.8873 31.8805 22.0281 32.0917 22.3096C32.2324 22.5911 32.3028 22.8726 32.3028 23.2245C32.3028 23.9283 31.9509 24.4209 31.2472 24.5617C30.8249 24.632 30.473 24.7728 30.0508 24.8432C29.6285 24.9135 29.2062 24.9839 28.8544 25.0543C28.4321 25.0543 27.9395 25.1247 27.5172 25.195C27.0246 25.195 26.5319 25.195 26.0393 25.2654C25.8985 26.1803 25.8282 27.0248 25.8985 27.799C25.8985 28.6435 25.8985 29.4176 25.8985 30.2621C25.8985 30.6844 25.8985 31.1067 25.8985 31.5289C25.8985 31.9512 25.8282 32.3734 25.6874 32.7253C25.617 33.0068 25.4059 33.2883 25.1244 33.4291C24.8429 33.6402 24.5614 33.6402 24.2095 33.5698C23.9984 33.5698 23.7873 33.4291 23.5761 33.218C23.365 33.0772 23.1539 32.8661 23.0835 32.7253C22.9427 32.5142 22.8724 32.3031 22.802 32.0216C22.802 31.74 22.7316 31.5289 22.7316 31.2474C22.5909 28.6435 22.5205 26.1099 22.3797 23.5764C22.239 21.0428 22.1686 18.4389 22.0982 15.835C22.0982 15.4831 22.0982 15.1312 22.0982 14.7793C22.0982 14.4274 22.0982 14.0756 22.239 13.7237C22.3797 13.0199 22.802 12.5977 23.5057 12.5977C23.8576 12.5977 24.1391 12.5977 24.4206 12.8088C24.7021 12.9495 24.8429 13.231 24.9837 13.5126C25.1948 14.2867 25.3355 15.0608 25.3355 15.9053C25.3355 16.8202 25.3355 17.6648 25.3355 18.5093C25.3355 19.3538 25.3355 20.2687 25.3355 21.1836L25.2652 21.0428Z" fill="#FF6900"/>
<path d="M40.0441 15.9053C39.833 15.7645 39.5515 15.6238 39.3403 15.6238C39.1292 15.6238 38.8477 15.6238 38.6366 15.6238C38.4255 15.6238 38.1439 15.6238 37.9328 15.7645C37.7217 15.7645 37.5106 15.8349 37.2291 15.9053C36.0327 15.9757 35.3993 15.6942 35.1881 14.92C34.977 14.0051 35.3993 13.3014 36.5957 12.8087C36.8068 12.7384 37.0883 12.668 37.3698 12.5976C37.6513 12.5976 37.8624 12.4569 38.1439 12.3865C38.3551 12.3865 38.5662 12.2457 38.7773 12.1753C38.9885 12.1753 39.1996 12.0346 39.4811 11.9642C39.4811 11.6123 39.4811 11.3308 39.5515 11.0493C39.5515 10.7678 39.5515 10.4863 39.6218 10.1344C39.6218 9.85293 39.6218 9.6418 39.6218 9.36029C39.6218 9.07879 39.6219 8.86766 39.7626 8.65653C39.9034 8.4454 40.0441 8.23427 40.2552 8.09352C40.4664 7.95276 40.6775 7.81201 40.8886 7.81201C41.0998 7.81201 41.3109 7.81201 41.5924 7.95276C41.8739 8.09352 42.085 8.23427 42.1554 8.37502C42.2962 8.58615 42.4369 8.86766 42.5073 9.21954C42.5073 9.50105 42.648 9.85293 42.7184 10.1344C42.7888 10.4863 42.8592 10.8382 42.9295 11.2605C42.9295 11.6827 43.1407 11.9642 43.3518 12.1753C43.7037 12.5272 43.9148 12.8087 44.0556 13.1606C44.1963 13.5125 44.2667 13.794 44.2667 14.1459C44.2667 14.4978 44.2667 14.8497 44.1259 15.2015C43.9852 15.5534 43.8444 15.9053 43.7037 16.2572C44.0556 16.5387 44.3371 16.7498 44.6186 16.9609C44.9001 17.1721 45.1816 17.4536 45.4631 17.6647C45.6742 17.8758 45.8854 18.087 46.0965 18.2981C46.3076 18.5092 46.5187 18.7907 46.6595 19.0019C47.0114 19.5649 46.941 20.1279 46.4484 20.6909C45.9557 21.1835 45.3927 21.3243 44.7593 21.0428C44.3371 20.8317 43.9148 20.6205 43.5629 20.4094C43.211 20.1983 42.7888 19.9168 42.3665 19.7056C42.1554 20.0575 41.8739 20.339 41.7331 20.6909C41.522 21.0428 41.3109 21.2539 41.0294 21.5354C40.8886 21.6762 40.6071 21.8169 40.3256 21.8169C40.0441 21.8169 39.7626 21.8169 39.5515 21.8169C39.3403 21.7465 39.1292 21.5354 38.9885 21.3243C38.7773 21.1132 38.707 20.902 38.707 20.6909C38.707 20.339 38.707 19.9871 38.707 19.6353C38.707 19.2834 38.8477 18.9315 38.9181 18.5796C39.0588 18.1573 39.1996 17.7351 39.4107 17.3128C39.6219 16.8906 39.7626 16.4683 39.9034 16.0461L40.0441 15.9053ZM48.5597 22.3799C48.9115 22.3799 49.193 22.3799 49.4042 22.3799C49.6153 22.3799 49.8264 22.3799 50.0376 22.3799C51.0228 22.4503 51.8673 22.7318 52.4304 23.1541C52.9934 23.5763 53.3453 24.2801 53.486 25.2654C53.6268 26.1099 53.7675 27.0248 53.7675 27.8693C53.7675 28.7138 53.7675 29.6287 53.7675 30.4732C53.7675 31.4585 53.486 32.1623 53.0637 32.6549C52.6415 33.1475 51.9377 33.429 50.9525 33.5698C50.3191 33.7105 49.7561 33.7809 49.1227 33.9217C48.4893 33.992 47.9263 34.0624 47.2929 34.2032C46.3076 34.3439 45.4631 34.2032 44.7593 33.7809C43.9852 33.3587 43.5629 32.6549 43.3518 31.6696C42.9295 29.7695 42.7184 27.7989 42.5777 25.8988C42.5777 24.9839 42.7184 24.3505 43.1407 23.9282C43.5629 23.506 44.1963 23.1541 45.1112 22.8726C45.5335 22.7318 45.8854 22.6614 46.3076 22.5911C46.7299 22.5911 47.1521 22.5911 47.504 22.5207C47.8559 22.5207 48.2078 22.5207 48.4893 22.4503L48.5597 22.3799ZM46.0261 26.1803C45.8854 26.9544 45.9557 27.7285 46.0261 28.4323C46.1669 29.1361 46.378 29.8398 46.7299 30.5436C47.4336 30.5436 48.067 30.5436 48.63 30.5436C49.193 30.5436 49.8264 30.2621 50.3894 29.9102C50.5302 29.2064 50.5302 28.4323 50.4598 27.7285C50.3894 27.0248 50.2487 26.321 49.8968 25.5469C49.193 25.5469 48.5597 25.5469 47.9263 25.5469C47.2929 25.5469 46.5891 25.758 45.9557 26.1099L46.0261 26.1803ZM49.4746 14.92C49.4746 14.2866 49.4746 13.6533 49.5449 13.1606C49.5449 12.668 49.5449 12.1754 49.6153 11.7531C49.6153 11.4716 49.7561 11.2605 49.8264 11.0493C49.9672 10.8382 50.1079 10.6271 50.2487 10.4159C50.3894 10.2048 50.6006 10.1344 50.8117 10.0641C51.0228 10.0641 51.234 9.99368 51.5155 10.0641C51.7266 10.0641 51.9377 10.2048 52.1489 10.3456C52.36 10.4863 52.5007 10.6974 52.5711 10.9086C52.6415 11.0493 52.7119 11.1197 52.7119 11.1901C52.7822 12.5272 52.923 13.8644 52.9934 15.2015C53.0637 16.5387 53.2045 17.8758 53.2749 19.213V19.3537C53.2749 19.3537 53.2749 19.4241 53.2749 19.4945C53.2045 19.9871 52.9934 20.4094 52.7119 20.6909C52.4304 20.9724 52.0785 21.1132 51.6562 21.1132C51.3043 21.1132 51.0228 20.9724 50.7413 20.7613C50.4598 20.5501 50.2487 20.1983 50.1783 19.776C50.0376 18.9315 49.8968 18.087 49.8264 17.2425C49.7561 16.3979 49.6153 15.6238 49.5449 14.92H49.4746Z" fill="#FF6900"/>
<path d="M62.7757 21.6761C61.9312 21.6761 61.157 21.4649 60.3829 21.1131C59.6088 20.7612 58.9754 20.2685 58.4827 19.7055C57.9901 19.1425 57.4975 18.4387 57.216 17.6646C56.9345 16.8905 56.7937 16.0459 56.7937 15.1311C56.7937 13.9347 57.0752 12.879 57.4271 12.0345C57.779 11.19 58.2716 10.4158 58.8346 9.78245C59.3976 9.14906 60.1014 8.7268 60.8755 8.44529C61.6497 8.16379 62.4942 8.02304 63.3387 8.09341C64.324 8.09341 65.2389 8.30454 66.0834 8.65642C66.9279 9.00831 67.6317 9.50094 68.2651 10.064C68.8985 10.627 69.3207 11.3307 69.6726 12.1049C70.0245 12.879 70.1652 13.7235 70.0948 14.6384C70.0245 16.9608 69.3911 18.7203 68.1243 19.8463C66.9279 21.0427 65.0981 21.6057 62.7757 21.5353V21.6761ZM66.6464 14.7088C66.6464 13.7235 66.2945 12.9494 65.7315 12.3864C65.0981 11.8234 64.324 11.5419 63.2683 11.5419C61.157 11.5419 60.1014 12.8086 60.1718 15.2014C60.1718 16.1867 60.5237 16.9608 61.0163 17.5239C61.5089 18.0869 62.2831 18.3684 63.198 18.298C64.4647 18.298 65.3093 17.9461 65.8723 17.3127C66.4353 16.7497 66.7168 15.8348 66.6464 14.568V14.7088ZM76.4287 36.7366C75.9361 36.7366 75.3731 36.6662 74.8804 36.5959C74.3878 36.5959 73.8248 36.5255 73.3322 36.3847C72.3469 36.1736 71.5024 35.7514 70.869 35.1883C70.2356 34.6253 69.743 33.7808 69.4615 32.7955C69.1096 31.5288 69.18 30.5435 69.5318 29.7694C69.8837 28.9952 70.7282 28.4322 71.9246 27.9396C72.558 27.7284 73.1914 27.5173 73.8248 27.3766C74.4582 27.2358 75.0916 27.0247 75.7953 26.8135C76.4991 26.6024 76.7806 26.1802 76.6399 25.406C76.6399 25.1245 76.4991 24.9134 76.3584 24.7022C76.2176 24.4911 76.0065 24.3504 75.725 24.3504C75.2323 24.3504 74.7397 24.3504 74.1767 24.3504C73.684 24.3504 73.121 24.3504 72.6284 24.3504C72.2765 24.3504 71.9246 24.3504 71.5728 24.4207C71.2209 24.4911 70.869 24.4207 70.5171 24.4207C70.306 24.4207 70.0949 24.28 69.8837 24.0689C69.6726 23.8577 69.5318 23.6466 69.4615 23.4355C69.3207 23.0836 69.3207 22.8021 69.4615 22.5206C69.6022 22.2391 69.8133 22.0279 70.0948 21.8168C70.2356 21.7464 70.3764 21.6761 70.5171 21.6057C70.6579 21.6057 70.7986 21.5353 70.9394 21.4649C71.8543 21.3946 72.8395 21.2538 73.7544 21.1834C74.6693 21.1131 75.5842 21.0427 76.4991 21.1131C77.4844 21.1131 78.2585 21.3946 78.7512 21.9576C79.2438 22.4502 79.666 23.2243 79.8772 24.1392C79.8772 24.28 79.8772 24.4207 79.9475 24.6319C80.0179 24.843 79.9475 24.9134 79.9475 25.1245C80.0179 25.969 80.0883 26.6728 79.9475 27.1654C79.9475 27.7284 79.7364 28.1507 79.4549 28.573C79.1734 28.9248 78.8215 29.2767 78.3289 29.4878C77.8363 29.699 77.2029 29.9101 76.3584 30.1212C75.7953 30.262 75.2323 30.4027 74.6693 30.5435C74.1063 30.6842 73.6137 30.825 73.0507 31.0361C72.9099 31.0361 72.7692 31.1769 72.6988 31.3176C72.6284 31.4584 72.558 31.5991 72.558 31.7399C72.558 31.8806 72.558 32.0918 72.6284 32.2325C72.6284 32.3733 72.7692 32.514 72.9099 32.5844C73.121 32.7252 73.3322 32.8659 73.5433 33.0067C73.7544 33.1474 74.0359 33.2178 74.2471 33.2178C74.6693 33.2178 75.0916 33.2882 75.5138 33.2882C75.9361 33.2882 76.3584 33.2882 76.7806 33.2882C77.2732 33.2882 77.6955 33.3586 78.1881 33.4289C78.6808 33.4993 79.103 33.5697 79.5253 33.7104C79.8772 33.7808 80.0883 33.9919 80.2994 34.2031C80.5106 34.4142 80.5809 34.6957 80.5809 35.0476C80.5809 35.3995 80.5106 35.7514 80.2291 36.0329C80.0179 36.3144 79.666 36.4551 79.2438 36.5959C79.0327 36.5959 78.8215 36.6662 78.6104 36.6662C78.3993 36.6662 78.1881 36.6662 77.977 36.6662C77.6251 36.6662 77.3436 36.6662 77.0621 36.6662C76.7806 36.6662 76.4287 36.6662 76.1472 36.5959L76.4287 36.7366ZM75.9361 12.6679C75.9361 12.1752 75.9361 11.6826 75.9361 11.1196C75.9361 10.627 75.9361 10.064 75.9361 9.57132C75.9361 9.28981 75.9361 9.07868 75.9361 8.79718C75.9361 8.58605 76.0065 8.30454 76.1472 8.09341C76.2176 7.88228 76.3584 7.74153 76.4991 7.60078C76.7102 7.46003 76.851 7.38965 77.0621 7.38965C77.2732 7.38965 77.4844 7.38965 77.6955 7.38965C77.9066 7.38965 78.0474 7.5304 78.1881 7.74153C78.54 8.09341 78.7512 8.51567 78.8919 9.07868C79.2438 10.4158 79.3845 11.6826 79.3142 13.0198C79.2438 14.3569 79.103 15.6941 78.8919 16.9608C78.8919 17.3831 78.6808 17.6646 78.3289 17.9461C78.0474 18.1572 77.6955 18.298 77.3436 18.298C76.9917 18.298 76.7102 18.1572 76.3584 17.8757C76.0065 17.5942 75.8657 17.3127 75.7953 16.9608C75.7953 16.2571 75.7953 15.5533 75.7953 14.7792C75.7953 14.0754 75.7953 13.3716 75.7953 12.5975H75.6546L75.9361 12.6679Z" fill="#FF6900"/>
<path d="M91.1374 20.7612C90.7152 20.339 90.1521 20.0575 89.5891 19.9167C89.0261 19.776 88.4631 19.7056 87.8297 19.6352C87.3371 19.5648 86.8445 19.4945 86.3518 19.4241C85.8592 19.4241 85.3665 19.2833 84.8739 19.1426C84.4517 19.0018 84.0998 18.7907 83.8886 18.4388C83.6775 18.0869 83.6071 17.7351 83.6775 17.3832C83.6775 17.0313 83.8886 16.8202 84.1701 16.5387C84.4517 16.3275 84.8035 16.1868 85.1554 16.1868C86.4222 16.1868 87.6186 16.3275 88.815 16.5387C90.0114 16.7498 91.2078 17.1017 92.3338 17.6647C93.2487 18.0869 93.8821 18.65 94.234 19.3537C94.5859 20.0575 94.6562 20.8316 94.4451 21.7465C94.0932 23.154 93.671 24.4912 93.1783 25.8284C92.7561 27.1655 92.2634 28.5027 91.7708 29.8398C91.63 30.2621 91.3485 30.6139 90.9967 30.7547C90.6448 30.8955 90.2225 30.9658 89.8706 30.7547C89.5188 30.6139 89.2373 30.4028 89.0261 29.9806C88.815 29.6287 88.7446 29.2064 88.8854 28.7842C89.1669 27.8693 89.4484 27.0247 89.7299 26.1099C90.0114 25.195 90.3633 24.3504 90.6448 23.4356C90.7152 23.2244 90.7855 23.0133 90.9263 22.7318C90.9967 22.5207 91.067 22.2392 91.1374 22.028C91.1374 21.8169 91.2078 21.5354 91.2078 21.3243C91.2078 21.1131 91.2078 20.8316 91.067 20.5501L91.1374 20.7612ZM100.075 23.7874C100.075 22.8725 100.075 22.028 100.075 21.1131C100.075 20.1982 100.075 19.3537 100.075 18.4388C100.075 18.1573 100.075 17.8758 100.075 17.5239C100.075 17.2424 100.146 16.9609 100.216 16.6794C100.286 16.4683 100.427 16.2572 100.638 16.1164C100.849 15.9756 101.06 15.9053 101.272 15.9053C101.483 15.9053 101.694 15.9053 101.905 15.9053C102.116 15.9053 102.327 16.1164 102.398 16.3275C102.538 16.5387 102.679 16.8202 102.82 17.1017C102.961 17.3832 103.031 17.6647 103.031 17.9462C103.101 19.9167 103.172 21.8873 103.242 23.8578C103.242 25.8284 103.313 27.7989 103.383 29.7694C103.383 30.6139 103.242 31.2473 102.961 31.6696C102.679 32.0215 102.257 32.2326 101.764 32.1622C101.272 32.1622 100.92 31.8807 100.638 31.4585C100.427 31.0362 100.286 30.4732 100.216 29.6287C100.216 28.6434 100.216 27.6581 100.146 26.6729C100.146 25.6876 100.146 24.7023 100.075 23.7171H100.005L100.075 23.7874Z" fill="#FF6900"/>
<path d="M63.3387 0C64.1128 0 64.7462 0.633388 64.7462 1.40753V4.22259C64.7462 4.99673 64.1128 5.63011 63.3387 5.63011C62.5645 5.63011 61.9312 4.99673 61.9312 4.22259V1.40753C61.9312 0.633388 62.5645 0 63.3387 0Z" fill="#FFE134"/>
<path d="M70.3764 1.12584C71.0802 1.54809 71.2913 2.39261 70.869 3.026L69.4615 5.48917C69.0392 6.19294 68.1947 6.40407 67.5613 5.98181C66.8576 5.55955 66.6464 4.71503 67.0687 4.08165L68.4762 1.61847C68.8985 0.914706 69.743 0.703577 70.3764 1.12584Z" fill="#FFE134"/>
<path d="M58.7644 6.05219C58.0607 6.47445 57.2161 6.19294 56.8643 5.55955L56.1605 4.36315C55.7382 3.65939 56.0197 2.81487 56.6531 2.46299C57.3569 2.04073 58.2014 2.32224 58.5533 2.95562L59.2571 4.15202C59.6793 4.85579 59.3978 5.7003 58.7644 6.05219Z" fill="#FFE134"/>
</svg>
