<svg width="24" height="24" viewBox="0 0 24 24" fill="none" xmlns="http://www.w3.org/2000/svg">
<g clip-path="url(#clip0_22_189)">
<path d="M18.4 4.6H17.6V3.8C17.6 3.36 17.24 3 16.8 3C16.36 3 16 3.36 16 3.8V4.6H8V3.8C8 3.36 7.64 3 7.2 3C6.76 3 6.4 3.36 6.4 3.8V4.6H5.6C4.72 4.6 4 5.32 4 6.2V19C4 19.88 4.72 20.6 5.6 20.6H18.4C19.28 20.6 20 19.88 20 19V6.2C20 5.32 19.28 4.6 18.4 4.6ZM17.6 19H6.4C5.96 19 5.6 18.64 5.6 18.2V8.6H18.4V18.2C18.4 18.64 18.04 19 17.6 19Z" fill="currentColor"/>
</g>
<defs>
<clipPath id="clip0_22_189">
<rect width="24" height="24" fill="white"/>
</clipPath>
</defs>
</svg>
