<svg width="24" height="24" viewBox="0 0 24 24" fill="none" xmlns="http://www.w3.org/2000/svg">
<path d="M12 3C13.808 3 15.4803 3.34285 17.0167 4.02856C18.5532 4.71426 19.7679 5.64668 20.6607 6.8258C21.5536 8.00489 22 9.29104 22 10.6842C22 12.0774 21.5536 13.3654 20.6607 14.5481C19.7679 15.7309 18.555 16.6651 17.0223 17.3508C15.4896 18.0365 13.8155 18.3794 12 18.3794C11.4271 18.3794 10.8355 18.3394 10.2254 18.2596C7.57662 20.0519 6.16668 20.9589 5.99555 20.9806C5.91369 21.0097 5.83555 21.006 5.76115 20.9698C5.73138 20.948 5.70907 20.919 5.69419 20.8827C5.6793 20.8464 5.67188 20.8138 5.67188 20.7847V20.7412C5.71654 20.4582 6.05505 19.2791 6.6875 17.2039C5.25149 16.5073 4.11123 15.5839 3.26674 14.4338C2.42225 13.2837 2 12.0339 2 10.6842C2 9.29104 2.44643 8.00489 3.33929 6.8258C4.23214 5.64668 5.4468 4.71426 6.98326 4.02856C8.51971 3.34285 10.192 3 12 3Z" fill="#524841"/>
</svg>
