<svg width="24" height="24" viewBox="0 0 24 24" fill="none" xmlns="http://www.w3.org/2000/svg">
<path d="M5 10.5C5.82386 10.5 6.5 11.1761 6.5 12C6.5 12.8239 5.82386 13.5 5 13.5C4.17614 13.5 3.5 12.8239 3.5 12C3.5 11.1761 4.17614 10.5 5 10.5ZM12 10.5C12.8239 10.5 13.5 11.1761 13.5 12C13.5 12.8239 12.8239 13.5 12 13.5C11.1761 13.5 10.5 12.8239 10.5 12C10.5 11.1761 11.1761 10.5 12 10.5ZM19 10.5C19.8239 10.5 20.5 11.1761 20.5 12C20.5 12.8239 19.8239 13.5 19 13.5C18.1761 13.5 17.5 12.8239 17.5 12C17.5 11.1761 18.1761 10.5 19 10.5Z" fill="currentColor" stroke="currentColor"/>
</svg>
