<svg width="24" height="24" viewBox="0 0 24 24" fill="none" xmlns="http://www.w3.org/2000/svg">
<path d="M14 5.99997L16.293 3.70697C16.4805 3.5195 16.7348 3.41418 17 3.41418C17.2652 3.41418 17.5195 3.5195 17.707 3.70697L20.293 6.29297C20.4805 6.4805 20.5858 6.73481 20.5858 6.99997C20.5858 7.26514 20.4805 7.51944 20.293 7.70697L18 9.99997M14 5.99997L4.293 15.707C4.10545 15.8945 4.00006 16.1488 4 16.414V19C4 19.2652 4.10536 19.5195 4.29289 19.7071C4.48043 19.8946 4.73478 20 5 20H7.586C7.85119 19.9999 8.10551 19.8945 8.293 19.707L18 9.99997M14 5.99997L18 9.99997" stroke="currentColor" stroke-width="2" stroke-linecap="round" stroke-linejoin="round"/>
</svg>
